<svg xmlns="http://www.w3.org/2000/svg" width="1227" height="1227" viewBox="0 0 1227 1227"><g fill="none" fill-rule="evenodd"><path d="M989 93H221c-70.4 0-128 57.6-128 128v768c0 70.4 57.6 128 128 128h768c70.4 0 128-57.6 128-128V221c0-70.4-57.6-128-128-128" fill="#E44332"/><g fill="#FFF"><path d="M311.757 572.83c18.088-10.425 405.501-233.36 414.392-238.495 8.872-5.121 9.316-20.835-.609-26.5-9.937-5.664-28.8-16.38-35.82-20.487-7.144-4.168-19.995-6.486-31.914.379-4.948 2.855-336.042 193.231-347.109 199.522-13.246 7.529-29.638 7.626-42.84-.013C257.434 481.202 93 385.652 93 385.652v86.356c42.564 24.786 148.391 86.421 174.038 100.9 15.308 8.643 29.96 8.429 44.719-.078"/><path d="M311.757 745.367c18.088-10.425 405.501-233.359 414.392-238.495 8.872-5.12 9.316-20.834-.609-26.499-9.937-5.665-28.8-16.381-35.82-20.488-7.144-4.168-19.995-6.485-31.914.38-4.948 2.855-336.042 193.231-347.109 199.521-13.246 7.529-29.638 7.627-42.84-.012C257.434 653.739 93 558.189 93 558.189v86.356c42.564 24.786 148.391 86.421 174.038 100.9 15.308 8.643 29.96 8.429 44.719-.078"/><path d="M311.757 917.905c18.088-10.425 405.501-233.359 414.392-238.495 8.872-5.121 9.316-20.834-.609-26.499-9.937-5.665-28.8-16.381-35.82-20.488-7.144-4.168-19.995-6.486-31.914.379-4.948 2.855-336.042 193.232-347.109 199.522-13.246 7.529-29.638 7.627-42.84-.013C257.434 826.277 93 730.727 93 730.727v86.356c42.564 24.786 148.391 86.421 174.038 100.9 15.308 8.643 29.96 8.429 44.719-.078"/></g></g></svg>