<?xml version="1.0" encoding="UTF-8" standalone="no"?>
<svg
   width="1227"
   height="1227"
   viewBox="0 0 1227 1227"
   version="1.1"
   id="svg9713"
   sodipodi:docname="todoist2.svg"
   inkscape:version="1.2.1 (9c6d41e410, 2022-07-14)"
   xmlns:inkscape="http://www.inkscape.org/namespaces/inkscape"
   xmlns:sodipodi="http://sodipodi.sourceforge.net/DTD/sodipodi-0.dtd"
   xmlns:xlink="http://www.w3.org/1999/xlink"
   xmlns="http://www.w3.org/2000/svg"
   xmlns:svg="http://www.w3.org/2000/svg">
  <defs
     id="defs9717">
    <linearGradient
       inkscape:collect="always"
       id="linearGradient10013">
      <stop
         style="stop-color:#38bdf8;stop-opacity:1;"
         offset="0"
         id="stop10009" />
      <stop
         style="stop-color:#818cf8;stop-opacity:1;"
         offset="1"
         id="stop10011" />
    </linearGradient>
    <linearGradient
       inkscape:collect="always"
       xlink:href="#linearGradient10013"
       id="linearGradient10015"
       x1="1064.204"
       y1="141.69287"
       x2="153.75185"
       y2="1071.7408"
       gradientUnits="userSpaceOnUse" />
  </defs>
  <sodipodi:namedview
     id="namedview9715"
     pagecolor="#ffffff"
     bordercolor="#111111"
     borderopacity="1"
     inkscape:showpageshadow="0"
     inkscape:pageopacity="0"
     inkscape:pagecheckerboard="1"
     inkscape:deskcolor="#d1d1d1"
     showgrid="false"
     inkscape:zoom="0.33170334"
     inkscape:cx="351.21744"
     inkscape:cy="624.0516"
     inkscape:window-width="1920"
     inkscape:window-height="1017"
     inkscape:window-x="-8"
     inkscape:window-y="-8"
     inkscape:window-maximized="1"
     inkscape:current-layer="g9711" />
  <g
     fill="none"
     fill-rule="evenodd"
     id="g9711">
    <path
       id="path9701"
       style="display:inline;fill:url(#linearGradient10015);fill-opacity:1"
       d="M 221,93 C 150.60077,93 93,150.60077 93,221 v 156.07617 l 176.82031,102.78516 c 0,0 17.71052,10.73993 39.00196,0 21.29134,-10.73993 348.76757,-200.48047 348.76757,-200.48047 0,0 15.451,-8.29131 27.88672,-2.63867 12.43572,5.65255 43.33789,24.49609 43.33789,24.49609 0,0 10.92813,10.92745 -0.7539,22.98633 -11.68204,12.05888 -419.04883,241.55664 -419.04883,241.55664 0,0 -22.23498,11.30553 -37.3086,1.13086 C 256.69,556.77823 94.306649,464.77933 93,464.03906 v 82.36719 c 0.0836,-0.0932 0.177838,-0.14395 0.269531,-0.1543 0.213296,-0.0241 0.413872,0.16152 0.445313,0.48633 v -0.2832 l 177.304686,103.0664 c 0,0 17.71249,10.73992 39.00391,0 21.29141,-10.73982 348.76758,-200.48046 348.76758,-200.48046 0,0 8.69147,-4.66237 18.2832,-4.60938 3.19727,0.0177 6.49465,0.5595 9.60351,1.97266 12.43571,5.65254 43.33594,24.49414 43.33594,24.49414 0,0 10.93007,10.92941 -0.75195,22.98828 -11.68203,12.05887 -419.05078,241.55469 -419.05078,241.55469 0,0 -22.23313,11.30552 -37.30664,1.13086 C 257.84474,726.40695 93.989323,633.58141 93.683594,633.4082 c -0.06735,-0.0157 -0.133997,-0.032 -0.201172,-0.0488 C 93.32071,633.31606 93.159965,633.2691 93,633.2207 v 85.96289 c 0.246082,0.019 0.490575,0.10134 0.714844,0.24805 v -0.30469 L 271.01953,822.19336 c 0,0 17.71251,10.73991 39.00391,0 21.29139,-10.73991 348.76758,-200.48047 348.76758,-200.48047 0,0 8.69148,-4.66432 18.2832,-4.61133 3.19727,0.0177 6.49466,0.5595 9.60351,1.97266 12.4357,5.65253 43.33594,24.49609 43.33594,24.49609 0,0 10.93006,10.92747 -0.75195,22.98633 -11.68202,12.05886 -419.05078,241.55664 -419.05078,241.55664 0,0 -22.23315,11.30551 -37.30664,1.13086 C 257.83066,899.06952 93.527344,805.98828 93.527344,805.98828 v -0.10937 C 93.351298,805.8895 93.175213,805.86308 93,805.8125 V 989 c 0,70.3989 57.60077,128 128,128 h 768 c 70.3989,0 128,-57.6011 128,-128 V 221 C 1117,150.60077 1059.3989,93 989,93 Z M 93.712891,546.93945 c -0.0065,0.0618 -0.01705,0.12699 -0.03516,0.19532 -0.163161,0.61567 -0.264051,1.24836 -0.363281,1.87695 -0.0014,0.009 -0.0025,0.0182 -0.0039,0.0273 0.163915,-0.0319 0.288629,-0.052 0.398437,-0.0664 z m -0.04102,19.25782 c -0.01086,0.24719 -0.01796,0.49518 -0.0098,0.74218 0.0026,0.0343 0.0057,0.0554 0.0078,0.0723 z m -0.06641,0.71093 c 4.51e-4,0.0137 0.0015,0.0273 0.002,0.041 0.01803,0.55244 0.02605,1.10552 0.03125,1.6582 0.0041,0.50007 0.0049,0.99991 0.0059,1.5 7.06e-4,0.46819 -1.3e-4,0.93612 0,1.4043 0.0026,0.0543 0.01162,0.10798 0.01563,0.16211 l 0.0098,-4.64649 c 4.83e-4,0.0118 -0.04125,-0.0716 -0.06445,-0.11914 z" />
    <g
       fill="#ffffff"
       id="g9709"
       style="display:none"
       transform="translate(-2.2714485e-8,-9.5928504)">
      <path
         d="M 311.757,917.905 C 329.845,907.48 717.258,684.546 726.149,679.41 c 8.872,-5.121 9.316,-20.834 -0.609,-26.499 -9.937,-5.665 -28.8,-16.381 -35.82,-20.488 -7.144,-4.168 -19.995,-6.486 -31.914,0.379 -4.948,2.855 -336.042,193.232 -347.109,199.522 -13.246,7.529 -29.638,7.627 -42.84,-0.013 C 257.434,826.277 93,730.727 93,730.727 v 86.356 c 42.564,24.786 148.391,86.421 174.038,100.9 15.308,8.643 29.96,8.429 44.719,-0.078"
         id="path17615"
         style="display:inline" />
      <path
         id="path17625"
         style="display:inline"
         d="m 675.55273,283.40039 c -5.59562,-0.24237 -11.7866,0.89368 -17.74609,4.32617 -4.94799,2.855 -336.04239,193.23049 -347.10937,199.52149 -13.24599,7.52899 -29.63786,7.62727 -42.83985,-0.0117 C 257.43443,481.20233 93,385.65234 93,385.65234 v 86.35547 c 42.56396,24.78598 148.39014,86.42141 174.03711,100.90039 15.30798,8.64299 29.96172,8.42887 44.7207,-0.0781 18.08798,-10.42499 405.49964,-233.35915 414.39063,-238.49414 8.87199,-5.121 9.31561,-20.83501 -0.60938,-26.5 -9.93699,-5.664 -28.79836,-16.38129 -35.81836,-20.48828 -3.57199,-2.084 -8.57235,-3.70489 -14.16797,-3.94727 z" />
      <path
         d="m 311.757,745.367 c 18.088,-10.425 405.501,-233.359 414.392,-238.495 8.872,-5.12 9.316,-20.834 -0.609,-26.499 -9.937,-5.665 -28.8,-16.381 -35.82,-20.488 -7.144,-4.168 -19.995,-6.485 -31.914,0.38 -4.948,2.855 -336.042,193.231 -347.109,199.521 -13.246,7.529 -29.638,7.627 -42.84,-0.012 C 257.434,653.739 93,558.189 93,558.189 v 86.356 c 42.564,24.786 148.391,86.421 174.038,100.9 15.308,8.643 29.96,8.429 44.719,-0.078"
         id="path17620"
         style="display:inline" />
    </g>
  </g>
</svg>
