<svg version="1.2" xmlns="http://www.w3.org/2000/svg" viewBox="0 0 921 920" width="921" height="920"><style>.a{fill:#fff}.b{fill:#eae6e5}.c{fill:#1cb083}</style><path class="a" d="m1 0h15v15h15v-15h15v15l6.9-0.3c3.8-0.1 6.9-0.1 6.8-0.1-0.1 0.1-3.2 2.3-13.7 9.4v-9h-15v15h8l-7.5 7.5-0.5-7.5h-15v15h9l-8.5 13.2-0.5-13.2h-15v-15h15v-15h-15v-7.5z"/><path class="b" d="m16 0h15v15h15v-15h15v7.5c0 4.1-0.3 7.4-0.8 7.4-0.4-0.1-3.7-0.1-14.2 0.1v4.7c0 4.2-0.4 5-3 6.8-1.6 1.1-3 2.3-3 2.7 0 0.5-2 0.8-9 0.8v4.5c0 2.5-0.3 4.5-0.8 4.5-0.4 0-1.6 1.4-2.7 3-1.8 2.6-2.6 3-11.5 3v15h-15v-15h15v-15h-15v-15h15v-7.5z"/><path class="b" d="m31 15h15v4.7c0 4.2-0.4 5-3 6.8-1.6 1.1-3 2.3-3 2.7 0 0.5-2 0.8-9 0.8v-7.5z"/><path class="a" d="m61 0h15l-0.3 3.6c-0.2 3.4-0.6 3.7-14.7 10.4v-7z"/><path class="b" d="m76 0h7.5c6.5 0 7.5 0.2 7.5 1.7 0 1-0.3 1.5-0.7 1.1-0.5-0.5-1.4-0.2-2.1 0.5-0.7 0.6-1.6 0.9-2 0.5-0.4-0.5-1.3-0.2-2 0.5-0.7 0.6-1.3 0.9-1.2 0.4 0-0.4-1.6 0-7 2.3v-3.5z"/><path class="a" d="m103.5 0.2l-5 0.9c-2.8 0.5-5.6 1.1-6.3 1.4-0.6 0.3-1.2-0.2-1.2-1 0-1.2 1.3-1.5 12.5-1.3z"/><path class="c" d="m463.5 0.4c198 0.1 361.6 0.5 363.5 1 1.9 0.4 7.2 1.9 11.7 3.2 4.6 1.3 11.1 3.7 14.5 5.2 3.5 1.6 10.8 5.8 16.3 9.4 5.5 3.7 13.1 9.7 16.9 13.5 3.8 3.7 9.6 10.4 12.9 14.8 3.3 4.4 7.9 11.8 10.2 16.5 2.3 4.7 5.2 11.6 6.4 15.5 1.2 3.8 2.9 10 3.7 13.7 1.2 5.9 1.4 56.7 1.4 366.5 0 315.8-0.2 360.7-1.5 367-0.8 4-2.6 10.6-3.9 14.5-1.3 4-3.8 10.2-5.6 13.8-1.8 3.6-5.6 10.1-8.5 14.5-2.9 4.4-9 11.8-13.6 16.4-4.6 4.6-12.9 11.3-18.4 15-5.5 3.7-13.6 8.2-18 10-4.4 1.9-12.3 4.5-27 8.6h-725l-9.5-2.4c-5.2-1.3-12.7-3.7-16.5-5.3-3.9-1.6-9.5-4.3-12.5-6-3-1.6-8.8-5.4-12.8-8.4-3.9-3-10.4-8.7-14.3-12.7-3.9-3.9-9.5-10.8-12.4-15.2-3-4.4-7.4-12.3-9.9-17.5-2.4-5.2-5.4-13.1-6.4-17.5-1.1-4.4-2.5-11.3-3.1-15.3-0.7-4.7-1.1-35.2-1.1-87.7 0-44.3 0.3-80.7 0.7-80.9 0.5-0.2 15.4 8.1 33.3 18.5 17.9 10.4 35.9 20.9 40 23.3 4.1 2.4 21.4 12.4 38.5 22.3 17 9.9 35 20.2 40 23.1 4.9 2.8 11.7 5.8 15 6.8q6 1.7 12.5 1.2c4.9-0.3 8.4-1.4 14.5-4.4 4.4-2.1 18.6-10 31.5-17.5 12.9-7.5 32.5-18.8 43.5-25.1 11-6.3 30.3-17.5 43-24.8 12.6-7.3 36.7-21.1 53.5-30.8 16.8-9.6 39.5-22.7 50.5-29 11-6.4 31.7-18.3 46-26.5 14.3-8.2 41.1-23.6 59.5-34.2 18.4-10.6 37.2-21.4 41.8-24.1 6.7-4 8.5-5.6 9.7-8.7 0.8-2 1.5-4.6 1.5-5.7 0-1.1-0.7-3.7-1.5-5.8-1.3-3.3-3.2-4.7-19.7-14.2-10-5.8-19.5-11-21.2-11.7-1.7-0.6-6.3-1.2-10.1-1.2-5.4-0.1-8.2 0.5-12 2.3-2.8 1.3-12.4 6.6-21.5 11.8-9.1 5.2-22.4 12.9-29.5 17-7.2 4.1-27 15.5-44 25.3-17.1 9.8-38.2 21.9-47 27-8.8 5.1-26.8 15.4-40 23-13.2 7.6-31.2 17.9-40 23-8.8 5.1-32.9 18.9-53.5 30.7-20.6 11.9-39.5 22.5-42 23.8-2.5 1.2-7.1 2.6-10.3 3.1-3.6 0.6-8 0.5-12-0.1-4.3-0.8-9.1-2.7-15.7-6.4-5.2-2.9-42.3-24.3-155.1-90.1l0.1-38.3c0-21 0.3-38.4 0.7-38.6 0.5-0.2 7.1 3.3 14.8 7.9 7.7 4.5 32.2 18.8 54.5 31.7 22.3 12.9 47.7 27.7 56.5 32.8 8.8 5.1 20.3 11.6 25.5 14.6 5.2 2.9 11.7 6.1 14.5 7 3.5 1.2 7.3 1.6 12.5 1.3 6.3-0.3 8.8-1 16-4.6 4.7-2.3 16.4-8.8 26-14.4 9.6-5.6 28.1-16.2 41-23.7 12.9-7.4 32.3-18.5 43-24.7 10.7-6.2 31.2-18 45.5-26.2 14.3-8.2 35.2-20.3 46.5-26.8 11.3-6.5 30.8-17.7 43.5-25 12.6-7.3 30.6-17.6 40-23 9.3-5.4 27.3-15.7 40-23 12.6-7.3 29.3-16.9 37-21.3 12.9-7.4 14.1-8.4 15.8-12.4 1.3-2.8 1.7-5.5 1.3-7.8-0.3-1.9-1.4-4.6-2.4-6-1.1-1.4-9.5-6.9-18.8-12.2-9.3-5.3-18.6-10.4-20.7-11.2-2.1-0.9-6.4-1.6-10-1.6-3.4 0.1-7.8 0.6-9.7 1.3-1.9 0.7-11.8 6.1-22 11.9-10.2 5.8-24.1 13.9-31 17.8-6.9 4-27.6 15.9-46 26.5-18.4 10.6-47.2 27.1-64 36.7-16.8 9.7-36.1 20.8-43 24.8-6.9 4-30.7 17.7-53 30.5-22.3 12.8-45.2 26-51 29.3-7.5 4.4-12.6 6.6-18 7.8-6.3 1.4-8.5 1.5-14 0.5-4.5-0.8-9.5-2.8-16-6.4-5.2-2.9-18.3-10.4-29-16.6-10.7-6.3-24-14-29.5-17.2-5.5-3.1-29.4-17-96-55.8l-0.3-37.8c-0.1-20.8 0-38.4 0.3-39.1 0.3-0.8 2.9 0.2 8.2 3.4 4.3 2.6 14.5 8.6 22.8 13.4 8.2 4.7 23.8 13.8 34.5 20 10.7 6.2 24.9 14.5 31.5 18.3 6.6 3.9 22.1 12.8 34.5 20 12.4 7.1 25.2 14.3 28.5 16 4.4 2.2 7.9 3.1 13 3.5 3.8 0.2 9.5-0.1 12.5-0.7 3.9-0.9 12.7-5.3 30.5-15.5 13.7-7.9 33.5-19.3 44-25.3 10.4-6.1 28.2-16.3 39.5-22.8 11.3-6.5 27.9-16.1 37-21.3 9.1-5.2 25.5-14.6 36.5-21 11-6.3 25.6-14.7 32.5-18.7 6.9-4 23.1-13.3 36-20.7 12.9-7.5 35.2-20.3 49.5-28.5 14.3-8.2 38.1-21.9 52.9-30.4 15.4-8.8 27.5-16.4 28.5-17.9 1-1.5 1.6-4.5 1.6-7.6 0-3.7-0.6-6.1-2-7.9-1.1-1.6-10.6-7.6-21.5-13.8-18.3-10.4-19.9-11.1-26-11.5-4.2-0.3-8.1 0-11 1-2.5 0.8-11.9 5.8-21 11-9.1 5.2-32 18.4-51 29.3-19 10.9-43.1 24.7-53.5 30.8-10.5 6-34.1 19.6-52.5 30.2-18.4 10.5-42.5 24.4-53.5 30.7-11 6.3-34 19.5-51 29.3-17.1 9.8-32.4 18.7-34 19.7-1.7 1-5.9 2.7-9.5 3.8-3.6 1.1-8.5 2-11 2-2.5 0-7-0.7-10-1.6-3.2-1-21.4-10.9-43.5-23.7-20.9-12.1-40.5-23.5-43.5-25.2-3-1.8-9.3-5.4-14-8.1-4.7-2.8-15.9-9.3-25-14.6-9.1-5.2-21.9-12.7-40.5-23.6l-0.3-77.4c-0.2-64.2 0-78.9 1.2-86.8 0.8-5.2 2.7-13.3 4.2-18 1.4-4.7 4.2-11.7 6.1-15.5 1.9-3.9 5.9-10.6 8.8-15 2.9-4.4 8.6-11.4 12.7-15.4 4-4.1 10.7-10 14.8-13.1 4.1-3 11.8-7.6 17-10.2 5.2-2.6 13.5-5.9 18.5-7.3 4.9-1.4 11.2-3 14-3.4 2.7-0.5 167-0.8 365-0.7z"/><path class="b" d="m833.4 0c6.9 0 7.6 0.2 7.6 2 0 1.1-0.5 2.2-1 2.5-0.6 0.3-1.2 0-1.5-0.5-0.3-0.6-1.2-0.8-2-0.5-0.8 0.3-1.7 0-2-0.5-0.3-0.6-1.2-0.8-2-0.5-0.8 0.3-1.7 0-2-0.5-0.3-0.6-1.2-0.8-2-0.5-0.8 0.3-1.8 0-2.1-0.5-0.4-0.6 2.2-1 7-1z"/><path class="a" d="m856 0l-0.1 10.5-7.7-2.9c-6.9-2.5-7.7-3-7.4-5.2 0.4-2.3 0.8-2.4 15.2-2.4z"/><path class="b" d="m856 0h15v15h15v-15h15v15h15v-7.5c0-7.3 0.1-7.5 2.5-7.5 2.4 0 2.5 0.2 2.5 7.5 0 7.3-0.1 7.5-2.5 7.5-2.4 0-2.5 0.2-2.5 7.5 0 7.3 0.1 7.5 2.5 7.5 2.4 0 2.5 0.2 2.5 7.5 0 7.3-0.1 7.5-2.5 7.5-2.4 0-2.5 0.2-2.5 7.5 0 7.3 0.1 7.5 2.5 7.5 2.4 0 2.5 0.2 2.5 7.5 0 7.4 0 7.5-5.5 8.1l0.5-15.6h-4.5c-2.5 0-4.5-0.5-4.5-1 0-0.6-1.4-2.9-3-5.3-1.7-2.3-3-5.2-3-6.5 0-1.3-0.6-2.2-1.5-2.2-0.8 0-3.4-2.1-5.8-4.7-2.3-2.5-5-5.5-6-6.5-0.9-1-1.7-2.3-1.7-2.8 0-0.6-0.6-1-1.3-1-0.6 0-3-1.7-5.1-3.8-2.2-2-4.9-4.2-6-4.7-1.2-0.6-2.2-2.2-2.4-3.8-0.2-2.4-0.6-2.7-4-2.8-2-0.1-4-0.1-4.5 0-0.4 0-0.7-0.2-0.7-0.7 0.1-0.4-1.3-1.4-3-2.2-2.9-1.4-3.1-1.9-3-6.8z"/><path class="a" d="m871 0h15v15h15v-15h15v7.5c0 7.3 0.1 7.5 2.5 7.5 2.4 0 2.5 0.2 2.5 7.5 0 7.3-0.1 7.5-2.5 7.5-2.4 0-2.5 0.2-2.5 7.5 0 7.3 0.1 7.5 2.5 7.5 2.4 0 2.5 0.2 2.5 7.5 0 7.3-0.1 7.5-2.5 7.5-2.4 0-2.5 0.2-2.5 7.5 0 4.1-0.3 7.5-0.8 7.5-0.4 0-2.1-3-3.7-6.7-1.7-3.6-3.1-7-3.3-7.5-0.1-0.4 1.6-0.8 7.8-0.8v-15h-7.5c-7 0-7.5 0.1-7.8 2.2-0.2 2.2-0.3 2.1-2-0.5-1.7-2.6-1.6-2.7 0.3-2.2 1.9 0.5 2 0 2-14.5h-7.5c-4.3 0-7.5 0.4-7.5 1 0 0.5-0.6 0.7-1.3 0.3-1-0.5-1-0.7 0-1 0.9-0.2 1.3-2.6 1.3-15.3h-7.5c-7.3 0-7.5 0.1-7.5 5l-3.6-2.3c-2-1.2-3.8-2.4-3.9-2.7-0.2-0.3 1.5-0.4 7.5 0v-7.5z"/><path class="a" d="m918.5 15c2.4 0 2.5 0.2 2.5 7.5 0 7.3-0.1 7.5-2.5 7.5-2.4 0-2.5-0.2-2.5-7.5 0-7.3 0.1-7.5 2.5-7.5z"/><path class="b" d="m901 15h15v7.5c0 7.3 0.1 7.5 2.5 7.5 2.4 0 2.5 0.2 2.5 7.5 0 7.3-0.1 7.5-2.5 7.5-2.4 0-2.5-0.2-2.5-15h-15v-7.5z"/><path class="a" d="m1 60h7c3.8 0 6.9 0.4 6.7 0.8-0.1 0.5-1.6 3.9-3.2 7.5-2.9 6.5-3.1 6.6-10.5 6.7v-7.5z"/><path class="b" d="m1 75h3.5c2.8 0 3.4 0.3 3.1 1.7-0.3 1-0.5 2-0.6 2.3-0.1 0.3-0.2 0.8-0.1 1.2 0 0.5-0.4 0.8-0.9 0.8-0.6 0-0.8 0.7-0.5 1.5 0.3 0.8 0 1.7-0.5 2-0.6 0.3-0.8 1.1-0.6 1.8 0.3 0.6 0 1.8-0.7 2.4-0.6 0.7-1.5 1.3-1.9 1.3-0.4 0-0.8-3.4-0.8-7.5z"/><path class="a" d="m918.5 75c2.4 0 2.5 0.2 2.5 7.5 0 4.3-0.4 7.5-1 7.5-0.6 0-1.9-3-2.9-6.8-1.1-3.7-1.8-7-1.5-7.5 0.3-0.4 1.6-0.7 2.9-0.7z"/><path class="a" d="m3.6 89.4c0.2 0.1-0.3 3.7-2.4 16.1l-0.3-7.7c-0.2-5.8 0-7.7 1.1-8.1 0.7-0.2 1.5-0.4 1.6-0.3z"/><path class="a" d="m532.5 172.6l19.5 11.1c10.9 6.2 20.4 12.3 21.5 13.8 1.4 1.8 2 4.2 2 7.9 0 3.1-0.6 6.1-1.6 7.6-1 1.5-13.1 9.1-28.5 17.9-14.8 8.5-38.6 22.2-52.9 30.4-14.3 8.2-36.6 21-49.5 28.5-12.9 7.4-35.2 20.2-49.5 28.5-14.3 8.2-36.4 20.9-49 28.2-12.7 7.3-32.2 18.5-43.5 25-11.3 6.5-29.1 16.7-39.5 22.8-10.5 6-30.3 17.4-44 25.3-17.8 10.2-26.6 14.6-30.5 15.5-3 0.6-8.7 0.9-12.5 0.7-5.1-0.4-8.6-1.3-13-3.5-3.3-1.7-16.1-8.9-28.5-16-12.4-7.2-27.9-16.1-34.5-20-6.6-3.8-20.8-12.1-31.5-18.3-10.7-6.2-26.3-15.3-34.5-20-8.3-4.8-18.5-10.8-22.8-13.4-4.2-2.5-7.8-4.4-8-4.2-0.1 0.2-0.2-17-0.2-77.3l3 1.8c1.6 1 10.2 6 19 11.1 8.8 5.2 22.5 13.1 30.5 17.8 8 4.6 17.4 10.1 21 12.2 3.6 2.1 10.3 6 15 8.7 4.7 2.8 22.9 13.4 40.5 23.6 18.2 10.5 34.4 19.2 37.5 20.1 3 0.9 7.5 1.6 10 1.6 2.5 0 7.4-0.9 11-2 3.6-1.1 7.8-2.8 9.5-3.8 1.6-1 16.9-9.9 34-19.7 17-9.8 40-23 51-29.3 11-6.3 35.1-20.2 53.5-30.7 18.4-10.6 42-24.2 52.5-30.2 10.4-6.1 34.5-19.9 53.5-30.8 19-10.9 41.9-24.1 51-29.3 9.1-5.2 18.1-10.1 20-10.8 2.1-0.8 6.5-1.3 18.5-0.8z"/><path class="b" d="m1.7 288c0.2 1.9 0.2 5.5 0 8-0.2 2.5-0.4 0.9-0.4-3.5 0-4.4 0.2-6.4 0.4-4.5z"/><path class="b" d="m1.7 318c0.2 1.9 0.2 5.5 0 8-0.2 2.5-0.4 0.9-0.4-3.5 0-4.4 0.2-6.4 0.4-4.5z"/><path class="a" d="m523.7 327c3.6 0 7.9 0.7 10 1.6 2.1 0.8 11.4 5.9 20.7 11.2 9.3 5.3 17.7 10.8 18.8 12.2 1 1.4 2.1 4.1 2.4 6 0.4 2.3 0 5-1.3 7.8-1.7 4-2.9 5-15.8 12.4-7.7 4.4-24.4 14-37 21.3-12.7 7.3-33.8 19.4-47 27-13.2 7.6-31.2 17.9-40 23-8.8 5.1-25.2 14.5-36.5 21-11.3 6.5-32.2 18.6-46.5 26.8-14.3 8.2-34.8 20-45.5 26.2-10.7 6.2-30.1 17.3-43 24.7-12.9 7.5-31.4 18.1-41 23.7-9.6 5.6-21.3 12.1-26 14.4-6.7 3.3-9.9 4.2-15 4.5-3.6 0.3-8.8-0.1-11.5-0.7-2.8-0.6-9.3-3.5-14.5-6.4-5.2-2.9-18.7-10.6-30-17.2-11.3-6.5-36.5-21.1-56-32.5-19.5-11.3-42.7-24.8-67.5-39.2v-38.3c0-21.1 0.2-38.2 0.5-38 0.3 0.1 29.7 17.2 65.5 38 35.7 20.7 70.6 41 77.5 45 6.9 4 14.3 8.2 16.5 9.3 2.2 1.1 6.9 2.6 10.5 3.3 5.6 1 7.6 1 14-0.5 5.4-1.2 10.5-3.4 18-7.8 5.8-3.3 28.7-16.5 51-29.3 22.3-12.8 46.1-26.5 53-30.5 6.9-4 26.2-15.1 43-24.8 16.8-9.6 45.6-26.1 64-36.7 18.4-10.6 39.1-22.5 46-26.5 6.9-3.9 20.8-12 31-17.8 10.2-5.8 20.1-11.2 22-11.9 1.9-0.7 6.3-1.2 9.7-1.3z"/><path class="b" d="m1.7 438c0.2 1.9 0.2 5.5 0 8-0.2 2.5-0.4 0.9-0.4-3.5 0-4.4 0.2-6.4 0.4-4.5z"/><path class="b" d="m1.7 468c0.2 1.9 0.2 5.5 0 8-0.2 2.5-0.4 0.9-0.4-3.5 0-4.4 0.2-6.4 0.4-4.5z"/><path class="a" d="m523.5 482.1c3.8 0 8.4 0.6 10.1 1.2 1.7 0.7 10.8 5.7 20.4 11.2 9.5 5.5 18.2 11.1 19.2 12.5 1 1.4 2.1 4.1 2.4 6 0.4 2.1 0 5.1-1 7.5-1.3 3.4-2.9 4.8-10.8 9.4-5.1 3-22.4 13-38.3 22.1-16 9.2-42.7 24.6-59.5 34.2-16.8 9.7-37.7 21.7-46.5 26.8-8.8 5.1-31.1 17.9-49.5 28.5-18.4 10.6-43.9 25.2-56.5 32.5-12.7 7.3-32 18.5-43 24.8-11 6.3-30.6 17.6-43.5 25.1-12.9 7.5-27.1 15.4-31.5 17.5-6.1 3-9.6 4.1-14.5 4.4q-6.5 0.5-12.5-1.2c-3.3-1-10.1-4-15-6.8-5-2.8-18.5-10.6-30-17.3-11.6-6.7-26.9-15.6-34-19.7-7.2-4.1-29.4-17.1-49.5-28.7-20.1-11.7-37-21.7-37.5-22.2-0.6-0.6-1-14.9-1-38.9 0-37.5 0-37.8 2-36.7 1.1 0.5 33.7 19.5 72.5 42 38.8 22.6 74.8 43.4 80 46.3 6.6 3.7 11.4 5.6 15.7 6.4 4 0.6 8.4 0.7 12 0.1 3.2-0.5 7.8-1.9 10.3-3.1 2.5-1.3 21.4-11.9 42-23.8 20.6-11.8 44.7-25.6 53.5-30.7 8.8-5.1 26.8-15.4 40-23 13.2-7.6 31.2-17.9 40-23 8.8-5.1 29.9-17.2 47-27 17-9.8 36.8-21.2 44-25.3 7.1-4.1 20.4-11.8 29.5-17 9.1-5.2 18.7-10.5 21.5-11.8 3.8-1.8 6.6-2.4 12-2.3z"/><path class="b" d="m1.7 588c0.2 1.9 0.2 5.5 0 8-0.2 2.5-0.4 0.9-0.4-3.5 0-4.4 0.2-6.4 0.4-4.5z"/><path class="b" d="m1.7 618c0.2 1.9 0.2 5.5 0 8-0.2 2.5-0.4 0.9-0.4-3.5 0-4.4 0.2-6.4 0.4-4.5z"/><path class="a" d="m1.3 815c0.2 0.3 0.7 2.6 1.1 5.2 0.4 3 0.2 4.8-0.4 4.8-0.6 0-1-2.4-1-5.3 0-2.8 0.1-5 0.3-4.7z"/><path class="b" d="m1.9 825c0.5 0 0.7 0.4 0.5 1-0.2 0.5 0 1.2 0.6 1.5 0.5 0.3 0.8 1.2 0.5 2-0.3 0.8-0.1 1.7 0.5 2 0.5 0.3 0.8 0.9 0.5 1.5-0.3 0.5-0.2 1.6 0.2 2.2 0.4 0.7 0.9 2.1 1 3 0.2 1.3-0.4 1.8-2.2 1.8-2.4 0-2.5-0.2-2.5-7.5 0-4.1 0.4-7.5 0.9-7.5z"/><path class="a" d="m920.5 825c0.3 0 0.5 3.4 0.5 7.5 0 7.3-0.1 7.5-2.5 7.7-1.4 0.2-2.3-0.2-2.1-0.7 0.2-0.6 0.9-3.5 1.6-6.5 0.7-3 1.4-6.1 1.6-6.8 0.2-0.6 0.6-1.2 0.9-1.2z"/><path class="a" d="m1 840h2.7c2.5 0.1 3.1 0.9 9.3 15h-12v-7.5z"/><path class="b" d="m919.2 840c1.6 0 1.8 0.9 1.8 7.5 0 7.3-0.1 7.5-2.5 7.5-2.4 0-2.5 0.2-2.5 7.5 0 7.3 0.1 7.5 2.5 7.5 2.4 0 2.5 0.2 2.5 7.5 0 7.3-0.1 7.5-2.5 7.5-2.4 0-2.5 0.2-2.5 7.5 0 7.3 0.1 7.5 2.5 7.5 2.4 0 2.5 0.2 2.5 7.5 0 7.3-0.1 7.5-2.5 7.5-2 0-2.5 0.5-2.5 2.5 0 2.4-0.2 2.5-7.5 2.5-7.3 0-7.5-0.1-7.5-2.5 0-2.4-0.2-2.5-7.5-2.5-7.3 0-7.5 0.1-7.5 2.5 0 2.4-0.2 2.5-7.5 2.5-7.3 0-7.5-0.1-7.5-2.5 0-2.4-0.2-2.5-7.5-2.5-7.3 0-7.5 0.1-7.5 2.5 0 2.4-0.2 2.5-7.5 2.5-7.3 0-7.5-0.1-7.5-2.5 0-2.4 0.2-2.5 15-2.5v-3c0-2.6 0.6-3.3 4.2-4.9 2.4-1 5.6-3 10.3-7.1l0.5 15h15v-15l-7.3-0.3c-5.2-0.1-6.7-0.5-5.2-1.1 1.1-0.5 2.8-1.6 3.7-2.5 0.9-0.9 2.5-2.3 3.5-3.1 1-0.8 2.1-1.4 2.5-1.3 0.5 0.2 0.6-0.2 0.3-0.7-0.3-0.6 0.2-1.6 1-2.3 1.4-1.1 1.6-0.5 1.5 11.3h15v-15h-5.5c-3.9 0-5.4-0.4-5.1-1.3 0.2-0.6 0.9-1.1 1.5-1 0.6 0.2 0.9 0 0.6-0.5-0.2-0.4 0.7-1.8 2.2-3.2 1.4-1.4 3.4-3.9 6.3-8.5v14.5h15v-15h-7c-3.9 0-7-0.2-7-0.5 0-0.3 0.8-1.7 1.7-3.3 1-1.5 2.3-3 3-3.5 0.7-0.4 1.1-1.2 0.8-1.7-0.3-0.6-0.1-1 0.5-1 0.5 0 0.8-0.5 0.5-1-0.3-0.6-0.1-1 0.5-1 0.5 0 0.9-0.6 0.7-1.3-0.1-0.7 1.1-1.3 6.3-1.7l-0.2-6.8c-0.1-3.8 0.2-7.2 0.7-7.5 0.5-0.4 1.7-0.7 2.7-0.7z"/><path class="b" d="m918.5 900c2.4 0 2.5 0.2 2.5 7.5 0 7.3-0.1 7.5-2.5 7.5-2.4 0-2.5-0.2-2.5-7.5 0-7.3 0.1-7.5 2.5-7.5z"/><path class="a" d="m915.7 848.2c0.3 6.5 0.4 6.8 2.8 6.8 2.4 0 2.5 0.2 2.5 7.5 0 7.3-0.1 7.5-2.5 7.5-2.4 0-2.5 0.2-2.5 7.5 0 7.3 0.1 7.5 2.5 7.5 2.4 0 2.5 0.2 2.5 7.5 0 7.3-0.1 7.5-2.5 7.5-2.4 0-2.5 0.2-2.5 7.5 0 7.3 0.1 7.5 2.5 7.5 2 0 2.5 0.5 2.5 2.5 0 2-0.5 2.5-2.5 2.5-2 0-2.5-0.5-2.5-2.5 0-2.4-0.2-2.5-7.5-2.5-7.3 0-7.5 0.1-7.5 2.5 0 2.4-0.2 2.5-7.5 2.5-7.3 0-7.5-0.1-7.5-2.5 0-2.4-0.2-2.5-7.5-2.5-7.3 0-7.5 0.1-7.5 2.5 0 2.4-0.2 2.5-7.5 2.5-7.3 0-7.5-0.1-7.5-2.5 0-2.4-0.2-2.5-14.5-2.6l14-5.5 0.2 2.8c0.3 2.8 0.3 2.8 15.3 2.8v-15h15v-5.8c0-4 0.6-6.2 1.8-7.5 1.2-1.3 3.2-1.8 13.2-1.7v-15h15v-15h-6l1.9-3.8c1-2 2.2-5.1 2.7-6.7 0.7-2.5 0.9-2 1.1 3.7z"/><path class="a" d="m918.5 885c2.4 0 2.5 0.2 2.5 7.5 0 7.3-0.1 7.5-2.5 7.5-2.4 0-2.5 0.2-2.5 15h-15v-15h15v-7.5c0-7.3 0.1-7.5 2.5-7.5z"/><path class="b" d="m1 855h6c4.7 0 6.2 0.4 7 1.7 0.5 1 0.7 2.1 0.3 2.5-0.3 0.5-0.1 0.8 0.5 0.8 0.8 0 1.2 1.9 1.2 5 0 4.8 0.1 5 3 5.2 1.7 0.2 3 0.6 3 1 0 0.5 2 2.9 4.5 5.5 2.5 2.7 4.5 5.6 4.5 6.5 0 1 0.6 1.8 1.2 1.8 0.7 0 3.7 2.2 6.5 5 2.9 2.7 5.7 5 6.3 5 0.5 0 1 1 1 2.2 0 1.9 0.7 2.4 4 3 2.2 0.5 4 1.1 4 1.5 0 0.5 1.6 1.7 3.5 2.8 3.2 1.8 3.6 2.4 3.5 10.5h7.5c4.1 0 7.6-0.4 7.7-1 0.2-0.6 0.8-0.6 1.8 0 1.3 0.8 1.2 1-0.3 1-1.1 0-1.7 0.8-1.7 2.5 0 2.4-0.2 2.5-7.5 2.5-7.3 0-7.5-0.1-7.5-2.5 0-2.4-0.2-2.5-7.5-2.5-7.3 0-7.5 0.1-7.5 2.5 0 2.4-0.2 2.5-7.5 2.5-7.3 0-7.5-0.1-7.5-2.5 0-2.4-0.2-2.5-7.5-2.5-7.3 0-7.5 0.1-7.5 2.5 0 2.4-0.2 2.5-7.5 2.5-7.3 0-7.5-0.1-7.5-2.5 0-2.4 0.2-2.5 15-2.5v-15h-15v-15h15v-15h-15v-7.5z"/><path class="b" d="m32.2 885c0.7 0 3.7 2.2 6.5 5 2.9 2.7 5.7 5 6.3 5 0.5 0 1 1 1 2.2 0 1.9 0.7 2.4 4 3 2.2 0.5 4 1.1 4 1.5 0 0.5 1.6 1.7 3.5 2.8 3.2 1.8 3.6 2.4 3.5 10.5h-15v-15h-15v-7.5c0-5.3 0.4-7.5 1.2-7.5z"/><path class="a" d="m16.7 862c0.4 0 1.5 1.6 2.5 3.5 1 1.9 1.8 3.7 1.8 4 0 0.3-1.1 0.5-2.5 0.5-2.4 0-2.5 0.2-2.5 15h7.5c6.5 0 7.5-0.2 7.5-1.8-0.1-1.5 0.1-1.5 1.6-0.2 1.6 1.4 1.6 1.5 0.1 1.7-1.4 0.3-1.7 1.6-1.7 15.3h7.5c6.7 0 7.5-0.2 7.7-2 0.3-1.9 0.4-1.9 6.3 2.8l-6.5-0.8v15h15v-9l7.2 3.4c4 1.9 7.4 3.9 7.5 4.5 0.2 0.7-2.4 1.1-7.2 1.1-7.3 0-7.5 0.1-7.5 2.5 0 2.4-0.2 2.5-7.5 2.5-7.3 0-7.5-0.1-7.5-2.5 0-2.4-0.2-2.5-7.5-2.5-7.3 0-7.5 0.1-7.5 2.5 0 2.4-0.2 2.5-7.5 2.5-7.3 0-7.5-0.1-7.5-2.5 0-2.4-0.2-2.5-15-2.5v-15h15v-15h-15v-15h15v-4c0-2.2 0.3-4 0.7-4z"/><path class="a" d="m31 900h15v15h-15v-7.5z"/><path class="a" d="m84.9 915.8c3.4 0.9 5.9 2 6 2.8 0.1 1.1-1.6 1.4-7.4 1.4-7.2 0-7.5-0.1-7.7-2.4-0.2-1.7 0.3-2.6 1.5-2.8 1-0.2 4.5 0.3 7.6 1z"/><path class="a" d="m840.2 915.1c0.5 0 0.8 1 0.8 2.4 0 2.4-0.2 2.5-7.5 2.5-4.1 0-7.5-0.3-7.5-0.8 0-0.4 3-1.4 6.7-2.3 3.8-0.9 7.1-1.7 7.5-1.8z"/><path class="b" d="m92.2 917.6c0.7 0.2 3.5 0.8 11.3 2.2l-6.3 0.1c-4.8 0.1-6.2-0.2-6.2-1.4-0.1-0.8 0.5-1.2 1.2-0.9z"/></svg>